<svg xmlns="http://www.w3.org/2000/svg" xmlns:xlink="http://www.w3.org/1999/xlink" width="300" zoomAndPan="magnify" viewBox="0 0 224.87999 225" height="300" preserveAspectRatio="xMidYMid meet" version="1.0"><defs><clipPath id="b71a399399"><path d="M 0 0.0585938 L 224.761719 0.0585938 L 224.761719 224.9375 L 0 224.9375 Z M 0 0.0585938 " clip-rule="nonzero"/></clipPath></defs><g clip-path="url(#b71a399399)"><path fill="#ffffff" d="M 178.03125 0.0585938 L 46.851562 0.0585938 C 20.980469 0.0585938 0 21.039062 0 46.910156 L 0 178.089844 C 0 203.960938 20.980469 224.941406 46.851562 224.941406 L 178.03125 224.941406 C 203.910156 224.941406 224.878906 203.960938 224.878906 178.089844 L 224.878906 46.910156 C 224.878906 21.039062 203.910156 0.0585938 178.03125 0.0585938 Z M 74.960938 178.089844 L 46.851562 178.089844 L 46.851562 75.019531 L 74.960938 75.019531 Z M 60.90625 63.140625 C 51.855469 63.140625 44.507812 55.738281 44.507812 46.609375 C 44.507812 37.484375 51.855469 30.082031 60.90625 30.082031 C 69.957031 30.082031 77.300781 37.484375 77.300781 46.609375 C 77.300781 55.738281 69.964844 63.140625 60.90625 63.140625 Z M 187.398438 178.089844 L 159.289062 178.089844 L 159.289062 125.582031 C 159.289062 94.023438 121.808594 96.410156 121.808594 125.582031 L 121.808594 178.089844 L 93.699219 178.089844 L 93.699219 75.019531 L 121.808594 75.019531 L 121.808594 91.558594 C 134.890625 67.328125 187.398438 65.539062 187.398438 114.757812 Z M 187.398438 178.089844 " fill-opacity="1" fill-rule="nonzero"/></g></svg>