<svg xmlns="http://www.w3.org/2000/svg" xmlns:xlink="http://www.w3.org/1999/xlink" width="1000" zoomAndPan="magnify" viewBox="0 0 750 749.999995" height="1000" preserveAspectRatio="xMidYMid meet" version="1.0"><defs><clipPath id="0a37d07973"><path d="M 400.21875 145 L 679.21875 145 L 679.21875 308 L 400.21875 308 Z M 400.21875 145 " clip-rule="nonzero"/></clipPath><clipPath id="f8308a5208"><path d="M 87 105.453125 L 325.5 105.453125 L 325.5 343.953125 L 87 343.953125 Z M 87 105.453125 " clip-rule="nonzero"/></clipPath><clipPath id="38d98caaff"><path d="M 418 389 L 661 389 L 661 655.40625 L 418 655.40625 Z M 418 389 " clip-rule="nonzero"/></clipPath><clipPath id="5f3823be7f"><path d="M 77.960938 407.8125 L 334.460938 407.8125 L 334.460938 636.5625 L 77.960938 636.5625 Z M 77.960938 407.8125 " clip-rule="nonzero"/></clipPath></defs><g clip-path="url(#0a37d07973)"><path fill="#ffffff" d="M 679.5 303.632812 C 669.339844 306.21875 663.058594 303.746094 657.417969 295.28125 L 617.324219 239.808594 L 611.53125 232.128906 L 564.707031 295.464844 C 559.355469 303.082031 553.746094 306.398438 543.761719 303.703125 L 603.71875 223.21875 L 547.898438 150.519531 C 557.496094 148.648438 564.128906 149.601562 570.023438 158.199219 L 611.609375 214.359375 L 653.5 158.503906 C 658.867188 150.882812 664.636719 147.988281 674.273438 150.796875 L 652.628906 179.492188 L 623.304688 217.675781 C 619.8125 222.039062 620.292969 225.023438 623.503906 229.238281 Z M 400.289062 221.875 L 405.195312 197.75 C 418.546875 150.011719 473.269531 130.175781 511.007812 159.671875 C 533.0625 177.023438 538.542969 201.566406 537.449219 229.058594 L 413.136719 229.058594 C 411.269531 278.542969 446.886719 308.40625 492.292969 293.167969 C 508.222656 287.820312 517.605469 275.347656 522.300781 259.742188 C 524.683594 251.921875 528.628906 250.703125 535.976562 252.933594 C 532.222656 272.449219 523.757812 288.753906 505.867188 298.957031 C 479.132812 314.230469 440.976562 309.289062 420.902344 288.0625 C 408.945312 275.75 404.007812 260.144531 401.789062 243.457031 C 401.441406 240.699219 400.742188 238.074219 400.21875 235.429688 C 400.265625 230.914062 400.289062 226.398438 400.289062 221.882812 Z M 413.363281 218.558594 L 525.703125 218.558594 C 524.96875 182.773438 502.6875 157.359375 472.238281 157.140625 C 438.8125 156.878906 414.8125 181.691406 413.363281 218.558594 Z M 413.363281 218.558594 " fill-opacity="1" fill-rule="nonzero"/></g><g clip-path="url(#f8308a5208)"><path fill="#13aa52" d="M 325.5 224.703125 C 325.5 226.65625 325.453125 228.605469 325.355469 230.554688 C 325.261719 232.503906 325.117188 234.449219 324.925781 236.390625 C 324.734375 238.335938 324.496094 240.269531 324.210938 242.203125 C 323.921875 244.132812 323.589844 246.054688 323.207031 247.96875 C 322.828125 249.882812 322.402344 251.785156 321.925781 253.679688 C 321.453125 255.574219 320.929688 257.453125 320.363281 259.320312 C 319.796875 261.1875 319.1875 263.039062 318.527344 264.878906 C 317.871094 266.714844 317.167969 268.535156 316.421875 270.339844 C 315.675781 272.140625 314.886719 273.925781 314.050781 275.691406 C 313.214844 277.453125 312.339844 279.195312 311.417969 280.917969 C 310.5 282.640625 309.539062 284.335938 308.535156 286.011719 C 307.53125 287.683594 306.488281 289.332031 305.402344 290.957031 C 304.320312 292.578125 303.195312 294.171875 302.03125 295.742188 C 300.871094 297.308594 299.667969 298.847656 298.429688 300.355469 C 297.195312 301.863281 295.917969 303.339844 294.609375 304.789062 C 293.296875 306.234375 291.953125 307.644531 290.574219 309.027344 C 289.191406 310.40625 287.78125 311.75 286.332031 313.0625 C 284.886719 314.371094 283.410156 315.648438 281.902344 316.886719 C 280.394531 318.125 278.855469 319.324219 277.289062 320.488281 C 275.71875 321.648438 274.125 322.773438 272.5 323.855469 C 270.878906 324.941406 269.230469 325.984375 267.558594 326.988281 C 265.882812 327.992188 264.183594 328.953125 262.464844 329.875 C 260.742188 330.792969 259 331.671875 257.234375 332.503906 C 255.472656 333.339844 253.6875 334.128906 251.886719 334.875 C 250.082031 335.625 248.261719 336.324219 246.425781 336.984375 C 244.585938 337.640625 242.734375 338.253906 240.867188 338.820312 C 239 339.386719 237.117188 339.90625 235.226562 340.378906 C 233.332031 340.855469 231.429688 341.28125 229.515625 341.664062 C 227.601562 342.042969 225.679688 342.375 223.746094 342.664062 C 221.816406 342.949219 219.878906 343.1875 217.9375 343.378906 C 215.996094 343.570312 214.050781 343.714844 212.101562 343.808594 C 210.152344 343.90625 208.203125 343.953125 206.25 343.953125 C 204.296875 343.953125 202.347656 343.90625 200.398438 343.808594 C 198.449219 343.714844 196.503906 343.570312 194.5625 343.378906 C 192.621094 343.1875 190.683594 342.949219 188.753906 342.664062 C 186.820312 342.375 184.898438 342.042969 182.984375 341.664062 C 181.070312 341.28125 179.167969 340.855469 177.273438 340.378906 C 175.382812 339.90625 173.5 339.386719 171.632812 338.820312 C 169.765625 338.253906 167.914062 337.640625 166.074219 336.984375 C 164.238281 336.324219 162.417969 335.625 160.613281 334.875 C 158.8125 334.128906 157.027344 333.339844 155.265625 332.503906 C 153.5 331.671875 151.757812 330.792969 150.035156 329.875 C 148.316406 328.953125 146.617188 327.992188 144.941406 326.988281 C 143.269531 325.984375 141.621094 324.941406 140 323.855469 C 138.375 322.773438 136.78125 321.648438 135.210938 320.488281 C 133.644531 319.324219 132.105469 318.125 130.597656 316.886719 C 129.089844 315.648438 127.613281 314.371094 126.167969 313.0625 C 124.71875 311.75 123.308594 310.40625 121.925781 309.027344 C 120.546875 307.644531 119.203125 306.234375 117.890625 304.789062 C 116.582031 303.339844 115.304688 301.863281 114.070312 300.355469 C 112.832031 298.847656 111.628906 297.308594 110.46875 295.742188 C 109.304688 294.171875 108.179688 292.578125 107.097656 290.957031 C 106.011719 289.332031 104.96875 287.683594 103.964844 286.011719 C 102.960938 284.335938 102 282.640625 101.082031 280.917969 C 100.160156 279.195312 99.285156 277.453125 98.449219 275.691406 C 97.613281 273.925781 96.824219 272.140625 96.078125 270.339844 C 95.332031 268.535156 94.628906 266.714844 93.972656 264.878906 C 93.3125 263.039062 92.703125 261.1875 92.136719 259.320312 C 91.566406 257.453125 91.046875 255.574219 90.574219 253.679688 C 90.097656 251.785156 89.671875 249.882812 89.292969 247.96875 C 88.910156 246.054688 88.578125 244.132812 88.289062 242.203125 C 88.003906 240.269531 87.765625 238.335938 87.574219 236.390625 C 87.382812 234.449219 87.238281 232.503906 87.144531 230.554688 C 87.046875 228.605469 87 226.65625 87 224.703125 C 87 222.753906 87.046875 220.800781 87.144531 218.851562 C 87.238281 216.902344 87.382812 214.957031 87.574219 213.015625 C 87.765625 211.074219 88.003906 209.136719 88.289062 207.207031 C 88.578125 205.277344 88.910156 203.355469 89.292969 201.4375 C 89.671875 199.523438 90.097656 197.621094 90.574219 195.730469 C 91.046875 193.835938 91.566406 191.957031 92.136719 190.085938 C 92.703125 188.21875 93.3125 186.367188 93.972656 184.53125 C 94.628906 182.691406 95.332031 180.871094 96.078125 179.070312 C 96.824219 177.265625 97.613281 175.480469 98.449219 173.71875 C 99.285156 171.953125 100.160156 170.210938 101.082031 168.488281 C 102 166.769531 102.960938 165.070312 103.964844 163.398438 C 104.96875 161.722656 106.011719 160.074219 107.097656 158.453125 C 108.179688 156.828125 109.304688 155.234375 110.46875 153.667969 C 111.628906 152.097656 112.832031 150.5625 114.070312 149.050781 C 115.304688 147.542969 116.582031 146.066406 117.890625 144.621094 C 119.203125 143.175781 120.546875 141.761719 121.925781 140.382812 C 123.308594 139 124.71875 137.65625 126.167969 136.34375 C 127.613281 135.035156 129.089844 133.761719 130.597656 132.523438 C 132.105469 131.285156 133.644531 130.085938 135.210938 128.921875 C 136.78125 127.757812 138.375 126.636719 140 125.550781 C 141.621094 124.46875 143.269531 123.421875 144.941406 122.417969 C 146.617188 121.417969 148.316406 120.453125 150.035156 119.535156 C 151.757812 118.613281 153.5 117.738281 155.265625 116.902344 C 157.027344 116.070312 158.8125 115.277344 160.613281 114.53125 C 162.417969 113.785156 164.238281 113.082031 166.074219 112.425781 C 167.914062 111.765625 169.765625 111.15625 171.632812 110.589844 C 173.5 110.023438 175.382812 109.5 177.273438 109.027344 C 179.167969 108.554688 181.070312 108.125 182.984375 107.746094 C 184.898438 107.363281 186.820312 107.03125 188.753906 106.746094 C 190.683594 106.457031 192.621094 106.21875 194.5625 106.027344 C 196.503906 105.835938 198.449219 105.695312 200.398438 105.597656 C 202.347656 105.5 204.296875 105.453125 206.25 105.453125 C 208.203125 105.453125 210.152344 105.5 212.101562 105.597656 C 214.050781 105.695312 215.996094 105.835938 217.9375 106.027344 C 219.878906 106.21875 221.816406 106.457031 223.746094 106.746094 C 225.679688 107.03125 227.601562 107.363281 229.515625 107.746094 C 231.429688 108.125 233.332031 108.554688 235.226562 109.027344 C 237.117188 109.5 239 110.023438 240.867188 110.589844 C 242.734375 111.15625 244.585938 111.765625 246.425781 112.425781 C 248.261719 113.082031 250.082031 113.785156 251.886719 114.53125 C 253.6875 115.277344 255.472656 116.070312 257.234375 116.902344 C 259 117.738281 260.742188 118.613281 262.464844 119.535156 C 264.183594 120.453125 265.882812 121.417969 267.558594 122.417969 C 269.230469 123.421875 270.878906 124.46875 272.5 125.550781 C 274.125 126.636719 275.71875 127.757812 277.289062 128.921875 C 278.855469 130.085938 280.394531 131.285156 281.902344 132.523438 C 283.410156 133.761719 284.886719 135.035156 286.332031 136.34375 C 287.78125 137.65625 289.191406 139 290.574219 140.382812 C 291.953125 141.761719 293.296875 143.175781 294.609375 144.621094 C 295.917969 146.066406 297.195312 147.542969 298.429688 149.050781 C 299.667969 150.5625 300.871094 152.097656 302.03125 153.667969 C 303.195312 155.234375 304.320312 156.828125 305.402344 158.453125 C 306.488281 160.074219 307.53125 161.722656 308.535156 163.398438 C 309.539062 165.070312 310.5 166.769531 311.417969 168.488281 C 312.339844 170.210938 313.214844 171.953125 314.050781 173.71875 C 314.886719 175.480469 315.675781 177.265625 316.421875 179.070312 C 317.167969 180.871094 317.871094 182.691406 318.527344 184.53125 C 319.1875 186.367188 319.796875 188.21875 320.363281 190.085938 C 320.929688 191.957031 321.453125 193.835938 321.925781 195.730469 C 322.402344 197.621094 322.828125 199.523438 323.207031 201.4375 C 323.589844 203.355469 323.921875 205.277344 324.210938 207.207031 C 324.496094 209.136719 324.734375 211.074219 324.925781 213.015625 C 325.117188 214.957031 325.261719 216.902344 325.355469 218.851562 C 325.453125 220.800781 325.5 222.753906 325.5 224.703125 Z M 325.5 224.703125 " fill-opacity="1" fill-rule="nonzero"/></g><path fill="#ffffff" d="M 238.125 210.132812 C 230.59375 176.890625 212.792969 165.960938 210.875 161.785156 C 208.78125 158.835938 206.65625 153.597656 206.65625 153.597656 C 206.621094 153.507812 206.5625 153.351562 206.5 153.199219 C 206.28125 156.148438 206.171875 157.285156 203.386719 160.253906 C 199.070312 163.628906 176.941406 182.199219 175.140625 219.964844 C 173.460938 255.191406 200.585938 276.183594 204.253906 278.859375 L 204.671875 279.152344 L 204.671875 279.128906 C 204.695312 279.304688 205.835938 287.511719 206.636719 296.210938 L 209.511719 296.210938 C 210.1875 290.058594 211.195312 283.960938 212.539062 277.917969 L 212.769531 277.769531 C 214.414062 276.589844 215.976562 275.3125 217.457031 273.9375 L 217.621094 273.785156 C 225.421875 266.582031 239.441406 249.917969 239.300781 223.351562 C 239.273438 218.914062 238.882812 214.507812 238.125 210.132812 Z M 206.332031 258.96875 C 206.332031 258.96875 206.332031 209.566406 207.960938 209.574219 C 209.234375 209.574219 210.878906 273.300781 210.878906 273.300781 C 208.617188 273.027344 206.332031 262.8125 206.332031 258.96875 Z M 206.332031 258.96875 " fill-opacity="1" fill-rule="nonzero"/><g clip-path="url(#38d98caaff)"><path fill="#8cc84b" d="M 528.550781 391.96875 C 535.226562 388.1875 543.738281 388.171875 550.246094 391.96875 L 649.902344 448.148438 C 656.136719 451.652344 660.308594 458.601562 660.25 465.785156 L 660.25 578.425781 C 660.292969 585.910156 655.710938 593.011719 649.136719 596.449219 L 550.011719 652.367188 C 549.167969 652.835938 548.296875 653.242188 547.398438 653.59375 C 546.5 653.945312 545.582031 654.234375 544.644531 654.460938 C 543.710938 654.6875 542.761719 654.851562 541.804688 654.953125 C 540.84375 655.054688 539.882812 655.09375 538.917969 655.066406 C 537.957031 655.039062 536.996094 654.949219 536.046875 654.796875 C 535.09375 654.640625 534.15625 654.425781 533.234375 654.144531 C 532.3125 653.867188 531.410156 653.527344 530.535156 653.128906 C 529.65625 652.726562 528.808594 652.273438 527.992188 651.761719 L 498.246094 634.570312 C 496.21875 633.363281 493.941406 632.402344 492.507812 630.441406 C 493.773438 628.738281 496.027344 628.523438 497.863281 627.773438 C 502 626.453125 505.789062 624.433594 509.59375 622.296875 C 510.554688 621.628906 511.730469 621.882812 512.648438 622.480469 L 538.011719 637.148438 C 539.824219 638.191406 541.660156 636.816406 543.210938 635.941406 L 640.542969 581.011719 C 641.742188 580.429688 642.410156 579.160156 642.308594 577.84375 L 642.308594 466.285156 C 642.445312 464.785156 641.585938 463.417969 640.222656 462.808594 L 541.351562 407.128906 C 541.066406 406.933594 540.757812 406.78125 540.425781 406.679688 C 540.097656 406.574219 539.757812 406.523438 539.414062 406.523438 C 539.066406 406.519531 538.726562 406.570312 538.394531 406.675781 C 538.066406 406.777344 537.757812 406.925781 537.472656 407.121094 L 438.738281 462.914062 C 437.40625 463.523438 436.488281 464.875 436.652344 466.378906 L 436.652344 577.933594 C 436.535156 579.253906 437.238281 580.496094 438.449219 581.0625 L 464.832031 595.957031 C 469.785156 598.628906 475.871094 600.128906 481.324219 598.167969 C 481.917969 597.945312 482.492188 597.675781 483.046875 597.367188 C 483.597656 597.054688 484.125 596.703125 484.625 596.3125 C 485.125 595.921875 485.589844 595.496094 486.027344 595.035156 C 486.460938 594.574219 486.859375 594.082031 487.21875 593.558594 C 487.578125 593.035156 487.894531 592.488281 488.171875 591.917969 C 488.449219 591.347656 488.683594 590.761719 488.871094 590.152344 C 489.054688 589.546875 489.195312 588.929688 489.289062 588.304688 C 489.382812 587.675781 489.429688 587.046875 489.429688 586.410156 L 489.453125 475.523438 C 489.335938 473.878906 490.886719 472.519531 492.480469 472.6875 L 505.164062 472.6875 C 506.832031 472.644531 508.144531 474.414062 507.917969 476.066406 L 507.890625 587.65625 C 507.902344 597.566406 503.828125 608.347656 494.660156 613.210938 C 483.363281 619.050781 469.394531 617.824219 458.230469 612.210938 L 429.863281 596.523438 C 423.1875 593.1875 418.707031 585.976562 418.746094 578.5 L 418.746094 465.859375 C 418.761719 464.03125 419.015625 462.234375 419.511719 460.472656 C 420.003906 458.710938 420.722656 457.042969 421.664062 455.472656 C 422.601562 453.902344 423.734375 452.480469 425.054688 451.214844 C 426.375 449.945312 427.835938 448.875 429.445312 447.996094 Z M 557.289062 470.050781 C 571.695312 469.214844 587.125 469.5 600.089844 476.601562 C 610.128906 482.039062 615.695312 493.453125 615.878906 504.617188 C 615.59375 506.121094 614.023438 506.953125 612.589844 506.847656 C 608.417969 506.835938 604.230469 506.902344 600.039062 506.820312 C 598.261719 506.886719 597.238281 505.253906 597.011719 503.683594 C 595.8125 498.34375 592.898438 493.0625 587.875 490.484375 C 580.167969 486.621094 571.222656 486.8125 562.8125 486.894531 C 556.671875 487.230469 550.070312 487.753906 544.871094 491.359375 C 540.867188 494.097656 539.664062 499.703125 541.09375 504.058594 C 542.425781 507.253906 546.125 508.28125 549.136719 509.230469 C 566.507812 513.769531 584.90625 513.402344 601.953125 519.304688 C 609.003906 521.738281 615.902344 526.480469 618.320312 533.863281 C 621.476562 543.757812 620.097656 555.589844 613.066406 563.53125 C 607.359375 570.074219 599.046875 573.546875 590.746094 575.566406 C 579.707031 578.027344 568.257812 578.085938 557.054688 576.984375 C 546.515625 575.78125 535.550781 573.011719 527.417969 565.835938 C 520.457031 559.796875 517.070312 550.382812 517.40625 541.304688 C 517.488281 539.769531 519.015625 538.703125 520.492188 538.828125 L 533.007812 538.828125 C 534.691406 538.710938 535.925781 540.164062 536.011719 541.746094 C 536.785156 546.753906 538.699219 552.175781 543.136719 555.097656 C 551.695312 560.621094 562.4375 560.238281 572.230469 560.394531 C 580.347656 560.039062 589.460938 559.929688 596.09375 554.554688 C 599.597656 551.492188 600.625 546.378906 599.683594 541.972656 C 598.65625 538.25 594.675781 536.523438 591.339844 535.296875 C 574.191406 529.875 555.585938 531.84375 538.605469 525.703125 C 531.714844 523.265625 525.046875 518.660156 522.402344 511.578125 C 518.707031 501.5625 520.398438 489.15625 528.183594 481.480469 C 535.695312 473.847656 546.707031 470.902344 557.136719 469.847656 Z M 557.289062 470.050781 " fill-opacity="1" fill-rule="nonzero"/></g><g clip-path="url(#5f3823be7f)"><path fill="#00d8ff" d="M 288.855469 481.878906 C 286.125 480.941406 283.371094 480.074219 280.597656 479.273438 C 281.0625 477.367188 281.492188 475.484375 281.875 473.636719 C 288.125 443.253906 284.039062 418.78125 270.082031 410.722656 C 256.699219 402.996094 234.816406 411.050781 212.714844 430.3125 C 210.539062 432.214844 208.410156 434.167969 206.328125 436.179688 C 204.9375 434.84375 203.519531 433.53125 202.078125 432.25 C 178.917969 411.65625 155.699219 402.976562 141.757812 411.058594 C 128.390625 418.808594 124.429688 441.816406 130.058594 470.605469 C 130.617188 473.460938 131.25 476.296875 131.953125 479.113281 C 128.667969 480.050781 125.496094 481.046875 122.460938 482.105469 C 95.304688 491.585938 77.960938 506.441406 77.960938 521.855469 C 77.960938 537.769531 96.578125 553.738281 124.863281 563.417969 C 127.15625 564.199219 129.46875 564.921875 131.796875 565.589844 C 131.042969 568.625 130.371094 571.683594 129.785156 574.757812 C 124.421875 603.050781 128.609375 625.515625 141.941406 633.214844 C 155.714844 641.167969 178.824219 632.992188 201.332031 613.292969 C 203.15625 611.691406 204.941406 610.046875 206.683594 608.355469 C 208.9375 610.53125 211.246094 612.644531 213.617188 614.691406 C 235.417969 633.472656 256.949219 641.058594 270.265625 633.335938 C 284.023438 625.363281 288.496094 601.230469 282.691406 571.867188 C 282.234375 569.566406 281.722656 567.277344 281.152344 565.003906 C 282.777344 564.523438 284.371094 564.027344 285.921875 563.511719 C 315.328125 553.753906 334.460938 537.984375 334.460938 521.855469 C 334.460938 506.386719 316.558594 491.429688 288.855469 481.878906 Z M 282.476562 553.097656 C 281.074219 553.5625 279.636719 554.007812 278.167969 554.445312 C 274.921875 544.15625 270.542969 533.214844 265.179688 521.90625 C 270.296875 510.871094 274.507812 500.070312 277.664062 489.847656 C 280.289062 490.605469 282.832031 491.40625 285.289062 492.253906 C 309.023438 500.4375 323.503906 512.53125 323.503906 521.855469 C 323.503906 531.78125 307.867188 544.671875 282.476562 553.097656 Z M 271.941406 574 C 274.507812 586.980469 274.875 598.71875 273.175781 607.894531 C 271.648438 616.140625 268.574219 621.640625 264.777344 623.839844 C 256.695312 628.527344 239.40625 622.4375 220.765625 606.371094 C 218.558594 604.46875 216.410156 602.507812 214.3125 600.484375 C 221.542969 592.570312 228.765625 583.367188 235.816406 573.148438 C 248.214844 572.046875 259.929688 570.246094 270.554688 567.785156 C 271.066406 569.84375 271.527344 571.917969 271.941406 574 Z M 165.40625 623.03125 C 157.507812 625.824219 151.21875 625.90625 147.417969 623.710938 C 139.324219 619.035156 135.960938 601 140.550781 576.804688 C 141.097656 573.945312 141.71875 571.101562 142.421875 568.277344 C 152.929688 570.605469 164.558594 572.277344 176.988281 573.289062 C 184.085938 583.285156 191.519531 592.476562 199.007812 600.527344 C 197.414062 602.070312 195.785156 603.570312 194.121094 605.03125 C 184.167969 613.742188 174.195312 619.921875 165.40625 623.03125 Z M 128.410156 553.035156 C 115.902344 548.753906 105.574219 543.191406 98.492188 537.121094 C 92.128906 531.664062 88.917969 526.25 88.917969 521.855469 C 88.917969 512.5 102.84375 500.574219 126.066406 492.464844 C 128.886719 491.480469 131.835938 490.554688 134.898438 489.683594 C 138.105469 500.136719 142.316406 511.066406 147.398438 522.121094 C 142.25 533.339844 137.980469 544.441406 134.738281 555.019531 C 132.613281 554.410156 130.503906 553.75 128.410156 553.035156 Z M 140.8125 468.5 C 135.992188 443.832031 139.191406 425.222656 147.25 420.554688 C 155.828125 415.578125 174.804688 422.671875 194.804688 440.453125 C 196.109375 441.617188 197.390625 442.800781 198.652344 444.011719 C 191.199219 452.023438 183.835938 461.144531 176.800781 471.085938 C 164.738281 472.207031 153.191406 474.003906 142.574219 476.414062 C 141.921875 473.789062 141.332031 471.152344 140.8125 468.5 Z M 251.453125 495.855469 C 248.945312 491.519531 246.34375 487.238281 243.652344 483.011719 C 251.835938 484.046875 259.679688 485.421875 267.042969 487.105469 C 264.832031 494.199219 262.078125 501.617188 258.832031 509.222656 C 256.460938 504.71875 254.003906 500.261719 251.453125 495.855469 Z M 206.332031 451.851562 C 211.386719 457.335938 216.449219 463.457031 221.429688 470.097656 C 211.324219 469.621094 201.21875 469.617188 191.113281 470.089844 C 196.097656 463.511719 201.199219 457.398438 206.332031 451.851562 Z M 160.925781 495.933594 C 158.40625 500.300781 155.992188 504.730469 153.683594 509.214844 C 150.492188 501.636719 147.761719 494.183594 145.535156 486.988281 C 152.851562 485.347656 160.65625 484.007812 168.789062 482.992188 C 166.066406 487.242188 163.445312 491.554688 160.925781 495.929688 Z M 169.019531 561.496094 C 160.621094 560.558594 152.699219 559.289062 145.382812 557.691406 C 147.644531 550.367188 150.4375 542.757812 153.695312 535.019531 C 156.015625 539.503906 158.441406 543.933594 160.96875 548.308594 C 163.566406 552.800781 166.257812 557.203125 169.019531 561.496094 Z M 206.636719 592.628906 C 201.441406 587.019531 196.261719 580.8125 191.203125 574.136719 C 196.113281 574.328125 201.121094 574.425781 206.210938 574.425781 C 211.4375 574.425781 216.605469 574.308594 221.695312 574.082031 C 216.699219 580.878906 211.65625 587.09375 206.636719 592.628906 Z M 258.9375 534.625 C 262.363281 542.449219 265.253906 550.019531 267.550781 557.21875 C 260.113281 558.917969 252.082031 560.285156 243.621094 561.300781 C 246.332031 556.996094 248.957031 552.640625 251.496094 548.234375 C 254.078125 543.75 256.558594 539.214844 258.9375 534.625 Z M 242.003906 542.75 C 238.117188 549.511719 234.015625 556.136719 229.699219 562.628906 C 221.878906 563.183594 214.050781 563.460938 206.210938 563.457031 C 198.226562 563.457031 190.464844 563.207031 182.988281 562.722656 C 178.558594 556.242188 174.378906 549.605469 170.449219 542.8125 C 166.539062 536.050781 162.894531 529.152344 159.507812 522.117188 C 162.882812 515.078125 166.519531 508.175781 170.417969 501.410156 L 170.417969 501.414062 C 174.3125 494.644531 178.457031 488.039062 182.855469 481.585938 C 190.480469 481.007812 198.304688 480.707031 206.210938 480.707031 C 214.152344 480.707031 221.984375 481.011719 229.609375 481.59375 C 233.960938 488.035156 238.082031 494.621094 241.96875 501.351562 C 245.878906 508.101562 249.5625 514.972656 253.027344 521.960938 C 249.597656 529.023438 245.925781 535.953125 242.003906 542.75 Z M 264.609375 420.226562 C 273.199219 425.1875 276.539062 445.1875 271.140625 471.417969 C 270.796875 473.09375 270.410156 474.796875 269.988281 476.527344 C 259.347656 474.066406 247.792969 472.238281 235.691406 471.101562 C 228.644531 461.050781 221.34375 451.914062 214.011719 444.003906 C 215.933594 442.148438 217.898438 440.34375 219.910156 438.585938 C 238.847656 422.085938 256.546875 415.570312 264.609375 420.226562 Z M 206.210938 498.917969 C 218.859375 498.917969 229.113281 509.1875 229.113281 521.855469 C 229.113281 534.519531 218.859375 544.789062 206.210938 544.789062 C 193.5625 544.789062 183.304688 534.519531 183.304688 521.855469 C 183.304688 509.1875 193.5625 498.917969 206.210938 498.917969 Z M 206.210938 498.917969 " fill-opacity="1" fill-rule="nonzero"/></g></svg>